{"title":"Cyrus.2010.LIMITED.DvDRip.H264.Feel-Free","uid":6006743,"size":749707757,"categoryP":"video","categoryS":"movies","magnet":"?xt=urn:btih:45e9ec50b24b30683bea532e0387dee39a75ee08&amp;dn=Cyrus.2010.LIMITED.DvDRip.H264.Feel-Free&amp;tr=udp%3A%2F%2Ftracker.openbittorrent.com%3A80&amp;tr=udp%3A%2F%2Fopen.demonii.com%3A1337&amp;tr=udp%3A%2F%2Ftracker.coppersurfer.tk%3A6969&amp;tr=udp%3A%2F%2Fexodus.desync.com%3A6969","seeders":0,"leechers":0,"uploader":"hiest","files":-1,"time":1291344158,"description":"Genre:Comedy | Drama | Romance \nLanguage:English\nIMDb:http://www.imdb.com/title/tt1336617/\nSource:DVD\n\n\nGeneral\nComplete name :Cyrus.2010.LIMITED.DvDRip.H264.Feel-Free\nFormat : MPEG-4\nFormat profile : Base Media\nCodec ID : isom\nFile size : 714 MiB\nDuration : 1h 30mn\nOverall bit rate : 1 097 Kbps\nVideo #2\nCodec ID : avc1\nCodec ID/Info : Advanced Video Coding\nDuration : 1h 30mn\nBit rate mode : Variable\nBit rate : 942 Kbps\nWidth : 640 pixels\nHeight : 352 pixels\nDisplay aspect ratio : 16:9\nFrame rate mode : Constant\nFrame rate : 29.970 fps\nOriginal frame rate : 29.000 fps\nResolution : 24 bits\nColorimetry : 4:2:0\nScan type : Progressive\nBits/(Pixel*Frame) : 0.140\nStream size : 613 MiB (86%)\nWriting library : ÃŽÂ´ÃƒÂ¥u\nAudio #1\nID : 1\nFormat : AAC\nFormat/Info : Advanced Audio Codec\nFormat version : Version 4\nFormat profile : LC\nFormat settings, SBR : No\nCodec ID : 40\nDuration : 1h 30mn\nBit rate mode : Constant\nBit rate : 147 Kbps\nChannel(s) : 6 channels\nChannel positions : Front: L C R, Rear: L R, LFE\nSampling rate : 48.0 KHz\nResolution : 16 bits\nStream size : 95.8 MiB (13%)\n\n\nPlot:\nA recently divorced guy meets the woman of his dreams. Then he meets her son.\n\n\n\n================================== &lt;a href=&quot;\nhttp://thepiratebay.se/user/hiest&quot; rel=&quot;nofollow&quot; target=&quot;_NEW&quot;&gt;\nhttp://thepiratebay.se/user/hiest&lt;/a&gt;\n==================================\n\n\n\nScreenshots:\n &lt;a href=&quot;\nhttp://rapidhdd.com/images/997615vlcsnap-2010-12-03-02h24m22s0.png&quot; rel=&quot;nofollow&quot; target=&quot;_NEW&quot;&gt;\nhttp://rapidhdd.com/images/997615vlcsnap-2010-12-03-02h24m22s0.png&lt;/a&gt;\n &lt;a href=&quot;\nhttp://www.rapidhdd.com/images/763942vlcsnap-2010-12-03-02h24m34s115.png&quot; rel=&quot;nofollow&quot; target=&quot;_NEW&quot;&gt;\nhttp://www.rapidhdd.com/images/763942vlcsnap-2010-12-03-02h24m34s115.png&lt;/a&gt;\n &lt;a href=&quot;\nhttp://www.rapidhdd.com/images/687366vlcsnap-2010-12-03-02h24m48s4.png&quot; rel=&quot;nofollow&quot; target=&quot;_NEW&quot;&gt;\nhttp://www.rapidhdd.com/images/687366vlcsnap-2010-12-03-02h24m48s4.png&lt;/a&gt;\n &lt;a href=&quot;\nhttp://www.rapidhdd.com/images/777481vlcsnap-2010-12-03-02h25m44s53.png&quot; rel=&quot;nofollow&quot; target=&quot;_NEW&quot;&gt;\nhttp://www.rapidhdd.com/images/777481vlcsnap-2010-12-03-02h25m44s53.png&lt;/a&gt;","torrent":{"xt":"urn:btih:45e9ec50b24b30683bea532e0387dee39a75ee08","amp;dn":"Cyrus.2010.LIMITED.DvDRip.H264.Feel-Free","amp;tr":["udp%3A%2F%2Ftracker.openbittorrent.com%3A80","udp%3A%2F%2Fopen.demonii.com%3A1337","udp%3A%2F%2Ftracker.coppersurfer.tk%3A6969","udp%3A%2F%2Fexodus.desync.com%3A6969"],"infoHash":"45e9ec50b24b30683bea532e0387dee39a75ee08","infoHashBuffer":{"type":"Buffer","data":[69,233,236,80,178,75,48,104,59,234,83,46,3,135,222,227,154,117,238,8]},"announce":[],"urlList":[]}}